<svg xmlns="http://www.w3.org/2000/svg" width="818.1014404296875" height="721.92041015625" viewBox="-295.2405090332031 -384.3570251464844 818.1014404296875 721.92041015625"><title>Neo4j Graph Visualization</title><desc>Created using Neo4j (http://www.neo4j.com/)</desc><g class="layer relationships"><g class="relationship" transform="translate(493.8610318898361 15.704290692270149) rotate(200.51985266059614)"><path class="outline" fill="#A5ABB6" stroke="none" d="M 24.018736134675446,6.953439040707552 L 24.277555179777966,5.987513214418485 A 1461.858438888183 1461.858438888183 0 0 0 375.249866468022,55.542616918872 L 375.2311338101863,56.54244144724203 A 1462.858438888183 1462.858438888183 0 0 1 24.018736134675446,6.953439040707552 Z M 423.5148570211092,56.65010236674698 L 423.5005832567735,55.650204242110476 A 1461.858438888183 1461.858438888183 0 0 0 774.6903951026736,7.66075071519995 L 773.9268682970732,4.759539447965257 L 781.5871425271547,6.362723380004627 L 775.7084308434743,11.529032404846209 L 774.9449040378738,8.627821137611514 A 1462.858438888183 1462.858438888183 0 0 1 423.5148570211092,56.65010236674698"/><text text-anchor="middle" pointer-events="none" font-size="8px" fill="#000000" x="399.3736660717824" y="59.29549633009265" transform="rotate(180 399.3736660717824 56.29549633009265)" font-family="sans-serif">ENDORSED</text></g><g class="relationship" transform="translate(493.8610318898361 15.704290692270149) rotate(259.91675087760973)"><path class="outline" fill="#A5ABB6" stroke="none" d="M 25 0.5 L 110.19708018368601 0.5 L 110.19708018368601 -0.5 L 25 -0.5 Z M 158.466611433686 0.5 L 243.66369161737202 0.5 L 243.66369161737202 3.5 L 250.66369161737202 0 L 243.66369161737202 -3.5 L 243.66369161737202 -0.5 L 158.466611433686 -0.5 Z"/><text text-anchor="middle" pointer-events="none" font-size="8px" fill="#000000" x="134.331845808686" y="3" transform="rotate(180 134.331845808686 0)" font-family="sans-serif">ENDORSED</text></g><g class="relationship" transform="translate(-260.7777866210795 -266.74167071480167) rotate(380.51985266059614)"><path class="outline" fill="#A5ABB6" stroke="none" d="M 24.018736134675446,6.953439040707552 L 24.277555179777966,5.987513214418485 A 1461.858438888183 1461.858438888183 0 0 0 375.249866468022,55.542616918872 L 375.2311338101863,56.54244144724203 A 1462.858438888183 1462.858438888183 0 0 1 24.018736134675446,6.953439040707552 Z M 423.5148570211092,56.65010236674698 L 423.5005832567735,55.650204242110476 A 1461.858438888183 1461.858438888183 0 0 0 774.6903951026736,7.66075071519995 L 773.9268682970732,4.759539447965257 L 781.5871425271547,6.362723380004627 L 775.7084308434743,11.529032404846209 L 774.9449040378738,8.627821137611514 A 1462.858438888183 1462.858438888183 0 0 1 423.5148570211092,56.65010236674698"/><text text-anchor="middle" pointer-events="none" font-size="8px" fill="#000000" x="399.3736660717824" y="59.29549633009265" font-family="sans-serif">ENDORSED</text></g><g class="relationship" transform="translate(493.8610318898361 15.704290692270149) rotate(235.83819016310827)"><path class="outline" fill="#A5ABB6" stroke="none" d="M 24.018736134675446,-6.953439040707552 L 24.277555179777966,-5.987513214418485 A 762.7355042027721 762.7355042027721 0 0 1 194.51106688701947,-31.492771493000532 L 194.47543597301774,-32.49213651038281 A 763.7355042027721 763.7355042027721 0 0 0 24.018736134675446,-6.953439040707552 Z M 242.76815005868775,-32.686120116621964 L 242.74054872301676,-31.686501106063815 A 762.7355042027721 762.7355042027721 0 0 1 413.17346436034677,-7.549641836567838 L 412.4203116622152,-4.645720175555415 L 420.0748070190644,-6.2762724844296045 L 414.17766795785553,-11.421537384584404 L 413.424515259724,-8.51761572357198 A 763.7355042027721 763.7355042027721 0 0 0 242.76815005868775,-32.686120116621964"/><text text-anchor="middle" pointer-events="none" font-size="8px" fill="#000000" x="218.62226776627955" y="-29.470937982535133" transform="rotate(180 218.62226776627955 -32.47093798253513)" font-family="sans-serif">ENDORSED</text></g><g class="relationship" transform="translate(244.3868920360785 -351.9125990573317) rotate(415.83819016310827)"><path class="outline" fill="#A5ABB6" stroke="none" d="M 24.018736134675446,-6.953439040707552 L 24.277555179777966,-5.987513214418485 A 762.7355042027721 762.7355042027721 0 0 1 194.51106688701947,-31.492771493000532 L 194.47543597301774,-32.49213651038281 A 763.7355042027721 763.7355042027721 0 0 0 24.018736134675446,-6.953439040707552 Z M 242.76815005868775,-32.686120116621964 L 242.74054872301676,-31.686501106063815 A 762.7355042027721 762.7355042027721 0 0 1 413.17346436034677,-7.549641836567838 L 412.4203116622152,-4.645720175555415 L 420.0748070190644,-6.2762724844296045 L 414.17766795785553,-11.421537384584404 L 413.424515259724,-8.51761572357198 A 763.7355042027721 763.7355042027721 0 0 0 242.76815005868775,-32.686120116621964"/><text text-anchor="middle" pointer-events="none" font-size="8px" fill="#000000" x="218.62226776627955" y="-29.470937982535133" font-family="sans-serif">ENDORSED</text></g><g class="relationship" transform="translate(134.79651355550484 308.56335047330464) rotate(320.79873658729997)"><path class="outline" fill="#A5ABB6" stroke="none" d="M 24.018736134675446,6.953439040707552 L 24.277555179777966,5.987513214418485 A 799.6597535216184 799.6597535216184 0 0 0 204.04855028795345,32.77265798311589 L 204.01454059997621,33.7720794863485 A 800.6597535216184 800.6597535216184 0 0 1 24.018736134675446,6.953439040707552 Z M 252.30655237962898,33.95818883022139 L 252.280246794399,32.958534882004415 A 799.6597535216184 799.6597535216184 0 0 0 432.25234993235347,7.559779901392696 L 431.4982506292912,4.656103913765799 L 439.15327712065994,6.284160858851941 L 433.2578156697698,11.431347884895226 L 432.5037163667075,8.527671897268329 A 800.6597535216184 800.6597535216184 0 0 1 252.30655237962898,33.95818883022139"/><text text-anchor="middle" pointer-events="none" font-size="8px" fill="#000000" x="228.16106990784553" y="36.72931663419752" font-family="sans-serif">ENDORSED</text></g><g class="relationship" transform="translate(493.8610318898361 15.704290692270149) rotate(500.79873658729997)"><path class="outline" fill="#A5ABB6" stroke="none" d="M 24.018736134675446,6.953439040707552 L 24.277555179777966,5.987513214418485 A 799.6597535216184 799.6597535216184 0 0 0 204.04855028795345,32.77265798311589 L 204.01454059997621,33.7720794863485 A 800.6597535216184 800.6597535216184 0 0 1 24.018736134675446,6.953439040707552 Z M 252.30655237962898,33.95818883022139 L 252.280246794399,32.958534882004415 A 799.6597535216184 799.6597535216184 0 0 0 432.25234993235347,7.559779901392696 L 431.4982506292912,4.656103913765799 L 439.15327712065994,6.284160858851941 L 433.2578156697698,11.431347884895226 L 432.5037163667075,8.527671897268329 A 800.6597535216184 800.6597535216184 0 0 1 252.30655237962898,33.95818883022139"/><text text-anchor="middle" pointer-events="none" font-size="8px" fill="#000000" x="228.16106990784553" y="36.72931663419752" transform="rotate(180 228.16106990784553 33.72931663419752)" font-family="sans-serif">ENDORSED</text></g><g class="relationship" transform="translate(-266.2405235693027 -175.74998979344892) rotate(374.13757132394056)"><path class="outline" fill="#A5ABB6" stroke="none" d="M 24.018736134675446,6.953439040707552 L 24.277555179777966,5.987513214418485 A 1419.4828500268945 1419.4828500268945 0 0 0 364.2893266537286,54.09118104162394 L 364.2700397533558,55.0909950320613 A 1420.4828500268945 1420.4828500268945 0 0 1 24.018736134675446,6.953439040707552 Z M 412.55411592931057,55.20164191461026 L 412.53941151738064,54.20175003031977 A 1419.4828500268945 1419.4828500268945 0 0 0 752.7680777387611,7.6569084202770075 L 752.0049096734997,4.755602765202887 L 759.6649856114776,6.359733877179274 L 753.7856351591097,11.525315960375835 L 753.0224670938483,8.624010305301715 A 1420.4828500268945 1420.4828500268945 0 0 1 412.55411592931057,55.20164191461026"/><text text-anchor="middle" pointer-events="none" font-size="8px" fill="#000000" x="388.4127534646569" y="57.8514900310272" font-family="sans-serif">ENDORSED</text></g><g class="relationship" transform="translate(493.8610318898361 15.704290692270149) rotate(194.13757132394056)"><path class="outline" fill="#A5ABB6" stroke="none" d="M 24.018736134675446,6.953439040707552 L 24.277555179777966,5.987513214418485 A 1419.4828500268945 1419.4828500268945 0 0 0 364.2893266537286,54.09118104162394 L 364.2700397533558,55.0909950320613 A 1420.4828500268945 1420.4828500268945 0 0 1 24.018736134675446,6.953439040707552 Z M 412.55411592931057,55.20164191461026 L 412.53941151738064,54.20175003031977 A 1419.4828500268945 1419.4828500268945 0 0 0 752.7680777387611,7.6569084202770075 L 752.0049096734997,4.755602765202887 L 759.6649856114776,6.359733877179274 L 753.7856351591097,11.525315960375835 L 753.0224670938483,8.624010305301715 A 1420.4828500268945 1420.4828500268945 0 0 1 412.55411592931057,55.20164191461026"/><text text-anchor="middle" pointer-events="none" font-size="8px" fill="#000000" x="388.4127534646569" y="57.8514900310272" transform="rotate(180 388.4127534646569 54.8514900310272)" font-family="sans-serif">ENDORSED</text></g><g class="relationship" transform="translate(493.8610318898361 15.704290692270149) rotate(207.71754941248122)"><path class="outline" fill="#A5ABB6" stroke="none" d="M 24.018736134675446,-6.953439040707552 L 24.277555179777966,-5.987513214418485 A 1382.963057228341 1382.963057228341 0 0 1 354.8437299332149,-52.83995264018836 L 354.8239383682939,-53.839756767984454 A 1383.963057228341 1383.963057228341 0 0 0 24.018736134675446,-6.953439040707552 Z M 403.10833254498135,-53.9531130243829 L 403.09323561058545,-52.95322698959103 A 1382.963057228341 1382.963057228341 0 0 1 733.8757542495828,-7.653421977800508 L 733.1129117007209,-4.752030717448657 L 740.772807615214,-6.357021240515056 L 734.8928776480651,-11.521943658269642 L 734.1300350992033,-8.620552397917791 A 1383.963057228341 1383.963057228341 0 0 0 403.10833254498135,-53.9531130243829"/><text text-anchor="middle" pointer-events="none" font-size="8px" fill="#000000" x="378.96681490019796" y="-50.60702413290028" transform="rotate(180 378.96681490019796 -53.60702413290028)" font-family="sans-serif">ENDORSED</text></g><g class="relationship" transform="translate(-183.3128232461362 -340.08456036321246) rotate(387.7175494124812)"><path class="outline" fill="#A5ABB6" stroke="none" d="M 24.018736134675446,-6.953439040707552 L 24.277555179777966,-5.987513214418485 A 1382.963057228341 1382.963057228341 0 0 1 354.8437299332149,-52.83995264018836 L 354.8239383682939,-53.839756767984454 A 1383.963057228341 1383.963057228341 0 0 0 24.018736134675446,-6.953439040707552 Z M 403.10833254498135,-53.9531130243829 L 403.09323561058545,-52.95322698959103 A 1382.963057228341 1382.963057228341 0 0 1 733.8757542495828,-7.653421977800508 L 733.1129117007209,-4.752030717448657 L 740.772807615214,-6.357021240515056 L 734.8928776480651,-11.521943658269642 L 734.1300350992033,-8.620552397917791 A 1383.963057228341 1383.963057228341 0 0 0 403.10833254498135,-53.9531130243829"/><text text-anchor="middle" pointer-events="none" font-size="8px" fill="#000000" x="378.96681490019796" y="-50.60702413290028" font-family="sans-serif">ENDORSED</text></g><g class="relationship" transform="translate(303.7507408685326 180.37267485323986) rotate(319.10177625558276)"><path class="outline" fill="#A5ABB6" stroke="none" d="M 25 0.5 L 98.12055185142863 0.5 L 98.12055185142863 -0.5 L 25 -0.5 Z M 146.39008310142862 0.5 L 219.51063495285726 0.5 L 219.51063495285726 3.5 L 226.51063495285726 0 L 219.51063495285726 -3.5 L 219.51063495285726 -0.5 L 146.39008310142862 -0.5 Z"/><text text-anchor="middle" pointer-events="none" font-size="8px" fill="#000000" x="122.25531747642863" y="3" font-family="sans-serif">ENDORSED</text></g><g class="relationship" transform="translate(-215.26592137393914 69.74869041736311) rotate(355.64176544336783)"><path class="outline" fill="#A5ABB6" stroke="none" d="M 24.018736134675446,-6.953439040707552 L 24.277555179777966,-5.987513214418485 A 1279.0157228641522 1279.0157228641522 0 0 1 327.9603455328437,-49.27644462977764 L 327.9389612470833,-50.276215959793944 A 1280.0157228641522 1280.0157228641522 0 0 0 24.018736134675446,-6.953439040707552 Z M 376.2243377995049,-50.398064067236874 L 376.20799959819743,-49.39819754455607 A 1279.0157228641522 1279.0157228641522 0 0 1 680.1054000160383,-7.642494233674514 L 679.3435777546681,-4.740834908033258 L 687.0029088194295,-6.348518844751036 L 681.1211630311984,-11.511373334529523 L 680.3593407698282,-8.609714008888266 A 1280.0157228641522 1280.0157228641522 0 0 0 376.2243377995049,-50.398064067236874"/><text text-anchor="middle" pointer-events="none" font-size="8px" fill="#000000" x="352.08233666421467" y="-47.06484314496697" font-family="sans-serif">ENDORSED</text></g><g class="relationship" transform="translate(493.8610318898361 15.704290692270149) rotate(535.6417654433678)"><path class="outline" fill="#A5ABB6" stroke="none" d="M 24.018736134675446,-6.953439040707552 L 24.277555179777966,-5.987513214418485 A 1279.0157228641522 1279.0157228641522 0 0 1 327.9603455328437,-49.27644462977764 L 327.9389612470833,-50.276215959793944 A 1280.0157228641522 1280.0157228641522 0 0 0 24.018736134675446,-6.953439040707552 Z M 376.2243377995049,-50.398064067236874 L 376.20799959819743,-49.39819754455607 A 1279.0157228641522 1279.0157228641522 0 0 1 680.1054000160383,-7.642494233674514 L 679.3435777546681,-4.740834908033258 L 687.0029088194295,-6.348518844751036 L 681.1211630311984,-11.511373334529523 L 680.3593407698282,-8.609714008888266 A 1280.0157228641522 1280.0157228641522 0 0 0 376.2243377995049,-50.398064067236874"/><text text-anchor="middle" pointer-events="none" font-size="8px" fill="#000000" x="352.08233666421467" y="-47.06484314496697" transform="rotate(180 352.08233666421467 -50.06484314496697)" font-family="sans-serif">ENDORSED</text></g><g class="relationship" transform="translate(78.11386108339377 -351.45222983217167) rotate(401.4485124690928)"><path class="outline" fill="#A5ABB6" stroke="none" d="M 24.018736134675446,6.953439040707552 L 24.277555179777966,5.987513214418485 A 976.3331931828727 976.3331931828727 0 0 0 249.70166250002475,38.87435950601025 L 249.67373195578878,39.87396937225742 A 977.3331931828727 977.3331931828727 0 0 1 24.018736134675446,6.953439040707552 Z M 297.96280558964094,40.029799989502976 L 297.94132711557006,39.03003067853592 A 976.3331931828727 976.3331931828727 0 0 0 523.5729913722342,7.5987579568557715 L 522.8152526827597,4.696029571616574 L 530.4723140527047,6.314489078954974 L 524.583309624867,11.469062470508035 L 523.8255709353924,8.566334085268837 A 977.3331931828727 977.3331931828727 0 0 1 297.96280558964094,40.029799989502976"/><text text-anchor="middle" pointer-events="none" font-size="8px" fill="#000000" x="273.81891970107756" y="42.75017382203623" font-family="sans-serif">ENDORSED</text></g><g class="relationship" transform="translate(493.8610318898361 15.704290692270149) rotate(221.4485124690928)"><path class="outline" fill="#A5ABB6" stroke="none" d="M 24.018736134675446,6.953439040707552 L 24.277555179777966,5.987513214418485 A 976.3331931828727 976.3331931828727 0 0 0 249.70166250002475,38.87435950601025 L 249.67373195578878,39.87396937225742 A 977.3331931828727 977.3331931828727 0 0 1 24.018736134675446,6.953439040707552 Z M 297.96280558964094,40.029799989502976 L 297.94132711557006,39.03003067853592 A 976.3331931828727 976.3331931828727 0 0 0 523.5729913722342,7.5987579568557715 L 522.8152526827597,4.696029571616574 L 530.4723140527047,6.314489078954974 L 524.583309624867,11.469062470508035 L 523.8255709353924,8.566334085268837 A 977.3331931828727 977.3331931828727 0 0 1 297.96280558964094,40.029799989502976"/><text text-anchor="middle" pointer-events="none" font-size="8px" fill="#000000" x="273.81891970107756" y="42.75017382203623" transform="rotate(180 273.81891970107756 39.75017382203623)" font-family="sans-serif">ENDORSED</text></g><g class="relationship" transform="translate(445.598138402642 -255.70161194870286) rotate(513.7815153840885)"><path class="outline" fill="#A5ABB6" stroke="none" d="M 24.018736134675446,6.953439040707552 L 24.277555179777966,5.987513214418485 A 1328.2587292121782 1328.2587292121782 0 0 0 340.6954494306431,50.96500023253884 L 340.67485046065997,51.96478805124616 A 1329.2587292121782 1329.2587292121782 0 0 1 24.018736134675446,6.953439040707552 Z M 388.9597466713973,52.082460268540444 L 388.94402096270835,51.0825839251429 A 1328.2587292121782 1328.2587292121782 0 0 0 705.577379277218,7.6478680507179835 L 704.815055279497,4.746340500874879 L 712.4746642264721,6.352699981009277 L 706.5938112741795,11.516571450508788 L 705.8314872764585,8.615043900665684 A 1329.2587292121782 1329.2587292121782 0 0 1 388.9597466713973,52.082460268540444"/><text text-anchor="middle" pointer-events="none" font-size="8px" fill="#000000" x="364.81798273600424" y="54.7428860466664" transform="rotate(180 364.81798273600424 51.7428860466664)" font-family="sans-serif">ENDORSED</text></g><g class="relationship" transform="translate(244.3868920360785 -351.9125990573317) rotate(539.8413624502665)"><path class="outline" fill="#A5ABB6" stroke="none" d="M 25 0.5 L 55.502068513088176 0.5 L 55.502068513088176 -0.5 L 25 -0.5 Z M 103.77159976308818 0.5 L 134.27366827617635 0.5 L 134.27366827617635 3.5 L 141.27366827617635 0 L 134.27366827617635 -3.5 L 134.27366827617635 -0.5 L 103.77159976308818 -0.5 Z"/><text text-anchor="middle" pointer-events="none" font-size="8px" fill="#000000" x="79.63683413808818" y="3" transform="rotate(180 79.63683413808818 0)" font-family="sans-serif">ENDORSED</text></g><g class="relationship" transform="translate(134.79651355550484 308.56335047330464) rotate(214.30203926028594)"><path class="outline" fill="#A5ABB6" stroke="none" d="M 24.018736134675446,6.953439040707552 L 24.277555179777966,5.987513214418485 A 723.0294640859487 723.0294640859487 0 0 0 184.2570249706149,30.114056573461085 L 184.21946865094375,31.11335108603123 A 724.0294640859487 724.0294640859487 0 0 1 24.018736134675446,6.953439040707552 Z M 232.51297210006666,31.31657923321677 L 232.4838274001735,30.317004030208977 A 723.0294640859487 723.0294640859487 0 0 0 392.6606856574948,7.537738725397949 L 391.9086443756178,4.633529037659674 L 399.5625151425303,6.267010682308073 L 393.6634073666641,11.410018309048983 L 392.9113660847871,8.505808621310708 A 724.0294640859487 724.0294640859487 0 0 1 232.51297210006666,31.31657923321677"/><text text-anchor="middle" pointer-events="none" font-size="8px" fill="#000000" x="208.36662952391302" y="34.11773842052946" transform="rotate(180 208.36662952391302 31.117738420529463)" font-family="sans-serif">ENDORSED</text></g><g class="relationship" transform="translate(134.79651355550484 308.56335047330464) rotate(322.81131103508443)"><path class="outline" fill="#A5ABB6" stroke="none" d="M 25 0.5 L 78.40576936383214 0.5 L 78.40576936383214 -0.5 L 25 -0.5 Z M 126.67530061383214 0.5 L 180.08106997766427 0.5 L 180.08106997766427 3.5 L 187.08106997766427 0 L 180.08106997766427 -3.5 L 180.08106997766427 -0.5 L 126.67530061383214 -0.5 Z"/><text text-anchor="middle" pointer-events="none" font-size="8px" fill="#000000" x="102.54053498883214" y="3" font-family="sans-serif">ENDORSED</text></g><g class="relationship" transform="translate(134.79651355550484 308.56335047330464) rotate(230.37344729990838)"><path class="outline" fill="#A5ABB6" stroke="none" d="M 24.018736134675446,6.953439040707552 L 24.277555179777966,5.987513214418485 A 1119.7222485351467 1119.7222485351467 0 0 0 286.7698423388009,43.80795193543713 L 286.7454495431566,44.807654386929926 A 1120.7222485351467 1120.7222485351467 0 0 1 24.018736134675446,6.953439040707552 Z M 335.0325934298424,44.94530173636531 L 335.01390048863277,43.94547646465594 A 1119.7222485351467 1119.7222485351467 0 0 0 597.7175418582872,7.6221614431871405 L 596.9576180185038,4.720004356169144 L 604.6158957012931,6.332698664862093 L 598.7307736446651,11.4917042258778 L 597.9708498048817,8.589547138859805 A 1120.7222485351467 1120.7222485351467 0 0 1 335.0325934298424,44.94530173636531"/><text text-anchor="middle" pointer-events="none" font-size="8px" fill="#000000" x="310.8897053621559" y="47.63657222722077" transform="rotate(180 310.8897053621559 44.63657222722077)" font-family="sans-serif">ENDORSED</text></g><g class="relationship" transform="translate(-266.2405235693027 -175.74998979344892) rotate(410.3734472999084)"><path class="outline" fill="#A5ABB6" stroke="none" d="M 24.018736134675446,6.953439040707552 L 24.277555179777966,5.987513214418485 A 1119.7222485351467 1119.7222485351467 0 0 0 286.7698423388009,43.80795193543713 L 286.7454495431566,44.807654386929926 A 1120.7222485351467 1120.7222485351467 0 0 1 24.018736134675446,6.953439040707552 Z M 335.0325934298424,44.94530173636531 L 335.01390048863277,43.94547646465594 A 1119.7222485351467 1119.7222485351467 0 0 0 597.7175418582872,7.6221614431871405 L 596.9576180185038,4.720004356169144 L 604.6158957012931,6.332698664862093 L 598.7307736446651,11.4917042258778 L 597.9708498048817,8.589547138859805 A 1120.7222485351467 1120.7222485351467 0 0 1 335.0325934298424,44.94530173636531"/><text text-anchor="middle" pointer-events="none" font-size="8px" fill="#000000" x="310.8897053621559" y="47.63657222722077" font-family="sans-serif">ENDORSED</text></g><g class="relationship" transform="translate(-266.2405235693027 -175.74998979344892) rotate(332.9676575085589)"><path class="outline" fill="#A5ABB6" stroke="none" d="M 24.018736134675446,-6.953439040707552 L 24.277555179777966,-5.987513214418485 A 651.0378687997071 651.0378687997071 0 0 1 165.67155567465682,-27.606524309699694 L 165.6299190812534,-28.60565713074493 A 652.0378687997071 652.0378687997071 0 0 0 24.018736134675446,-6.953439040707552 Z M 213.92493414206155,-28.82809906161185 L 213.8925029284069,-27.82862509177528 A 651.0378687997071 651.0378687997071 0 0 1 355.47965011207583,-7.5129964016817645 L 354.7299190908807,-4.608189455281085 L 362.38248815720993,-6.2477585099598105 L 356.4792914736694,-11.386072330216004 L 355.72956045247423,-8.481265383815325 A 652.0378687997071 652.0378687997071 0 0 0 213.92493414206155,-28.82809906161185"/><text text-anchor="middle" pointer-events="none" font-size="8px" fill="#000000" x="189.77766933466089" y="-25.66417979843027" font-family="sans-serif">ENDORSED</text></g><g class="relationship" transform="translate(-266.2405235693027 -175.74998979344892) rotate(438.2699553591737)"><path class="outline" fill="#A5ABB6" stroke="none" d="M 24.018736134675446,6.953439040707552 L 24.277555179777966,5.987513214418485 A 387.50724760868417 387.50724760868417 0 0 0 97.76313908969163,18.26304640518697 L 97.69395671426018,19.26065043431356 A 388.50724760868417 388.50724760868417 0 0 1 24.018736134675446,6.953439040707552 Z M 145.9933338579297,19.600482689588375 L 145.93819583151293,18.602003947680032 A 387.50724760868417 387.50724760868417 0 0 0 219.58923599593035,7.361717456759455 L 218.8536309799768,4.453301176289277 L 226.498141486353,6.130041799612881 L 220.5700426838684,11.239605830719693 L 219.83443766791484,8.331189550249514 A 388.50724760868417 388.50724760868417 0 0 1 145.9933338579297,19.600482689588375"/><text text-anchor="middle" pointer-events="none" font-size="8px" fill="#000000" x="121.84187692403194" y="22.68189875565031" font-family="sans-serif">ENDORSED</text></g><g class="relationship" transform="translate(-266.2405235693027 -175.74998979344892) rotate(391.99657265856183)"><path class="outline" fill="#A5ABB6" stroke="none" d="M 24.018736134675446,6.953439040707552 L 24.277555179777966,5.987513214418485 A 1203.4421437206477 1203.4421437206477 0 0 0 308.41717526020034,46.68334589963024 L 308.39446197353664,47.68308791965774 A 1204.4421437206477 1204.4421437206477 0 0 1 24.018736134675446,6.953439040707552 Z M 356.68063350386365,47.81195389455911 L 356.6632567191345,46.812104882281346 A 1203.4421437206477 1203.4421437206477 0 0 0 641.0160455335212,7.633462857964509 L 640.2550665064712,4.7315822745513945 L 647.9139300659934,6.341491892083363 L 642.0306842362545,11.502636969181994 L 641.2697052092045,8.60075638576888 A 1204.4421437206477 1204.4421437206477 0 0 1 356.68063350386365,47.81195389455911"/><text text-anchor="middle" pointer-events="none" font-size="8px" fill="#000000" x="332.53823628434515" y="50.48952236912987" font-family="sans-serif">ENDORSED</text></g><g class="relationship" transform="translate(-183.3128232461362 -340.08456036321246) rotate(357.51016447435086)"><path class="outline" fill="#A5ABB6" stroke="none" d="M 24.018736134675446,-6.953439040707552 L 24.277555179777966,-5.987513214418485 A 408.7678494388763 408.7678494388763 0 0 1 103.22968316667826,-19.03350663858373 L 103.16401074036017,-20.031347874663652 A 409.7678494388763 409.7678494388763 0 0 0 24.018736134675446,-6.953439040707552 Z M 151.4634067505011,-20.357332041298946 L 151.41120903137886,-19.358695271437966 A 408.7678494388763 408.7678494388763 0 0 1 230.5322374888919,-7.379575357660491 L 229.7949648928208,-4.4715813550733845 L 237.44043559427365,-6.1439383005924535 L 231.51526761698668,-11.256900694443301 L 230.77799502091557,-8.348906691856193 A 409.7678494388763 409.7678494388763 0 0 0 151.4634067505011,-20.357332041298946"/><text text-anchor="middle" pointer-events="none" font-size="8px" fill="#000000" x="127.31227602539369" y="-17.406618711120018" font-family="sans-serif">ENDORSED</text></g><g class="relationship" transform="translate(-183.3128232461362 -340.08456036321246) rotate(454.45810959172394)"><path class="outline" fill="#A5ABB6" stroke="none" d="M 24.018736134675446,6.953439040707552 L 24.277555179777966,5.987513214418485 A 698.4634015278407 698.4634015278407 0 0 0 177.91402398832747,29.25962414962737 L 177.8751684638224,30.25886898860108 A 699.4634015278407 699.4634015278407 0 0 1 24.018736134675446,6.953439040707552 Z M 226.16917703991749,30.46827015637234 L 226.13898819631035,29.468725943382424 A 698.4634015278407 698.4634015278407 0 0 0 379.9714905565179,7.529789940520473 L 379.22019147182016,4.62538816298825 L 386.8736445515427,6.26082570581445 L 380.9732226694482,11.402325643896772 L 380.22192358475047,8.497923866364548 A 699.4634015278407 699.4634015278407 0 0 1 226.16917703991749,30.46827015637234"/><text text-anchor="middle" pointer-events="none" font-size="8px" fill="#000000" x="202.02253291217303" y="33.280506116101606" transform="rotate(180 202.02253291217303 30.280506116101606)" font-family="sans-serif">ENDORSED</text></g><g class="relationship" transform="translate(303.7507408685326 180.37267485323986) rotate(211.99657265856183)"><path class="outline" fill="#A5ABB6" stroke="none" d="M 24.018736134675446,6.953439040707552 L 24.277555179777966,5.987513214418485 A 1203.4421437206477 1203.4421437206477 0 0 0 308.41717526020034,46.68334589963024 L 308.39446197353664,47.68308791965774 A 1204.4421437206477 1204.4421437206477 0 0 1 24.018736134675446,6.953439040707552 Z M 356.68063350386365,47.81195389455911 L 356.6632567191345,46.812104882281346 A 1203.4421437206477 1203.4421437206477 0 0 0 641.0160455335212,7.633462857964509 L 640.2550665064712,4.7315822745513945 L 647.9139300659934,6.341491892083363 L 642.0306842362545,11.502636969181994 L 641.2697052092045,8.60075638576888 A 1204.4421437206477 1204.4421437206477 0 0 1 356.68063350386365,47.81195389455911"/><text text-anchor="middle" pointer-events="none" font-size="8px" fill="#000000" x="332.53823628434515" y="50.48952236912987" transform="rotate(180 332.53823628434515 47.48952236912987)" font-family="sans-serif">ENDORSED</text></g><g class="relationship" transform="translate(303.7507408685326 180.37267485323986) rotate(226.8983392243257)"><path class="outline" fill="#A5ABB6" stroke="none" d="M 25 0.5 L 328.77323413694336 0.5 L 328.77323413694336 -0.5 L 25 -0.5 Z M 377.04276538694336 0.5 L 680.8159995238867 0.5 L 680.8159995238867 3.5 L 687.8159995238867 0 L 680.8159995238867 -3.5 L 680.8159995238867 -0.5 L 377.04276538694336 -0.5 Z"/><text text-anchor="middle" pointer-events="none" font-size="8px" fill="#000000" x="352.90799976194336" y="3" transform="rotate(180 352.90799976194336 0)" font-family="sans-serif">ENDORSED</text></g><g class="relationship" transform="translate(303.7507408685326 180.37267485323986) rotate(247.00998737043892)"><path class="outline" fill="#A5ABB6" stroke="none" d="M 24.018736134675446,-6.953439040707552 L 24.277555179777966,-5.987513214418485 A 1020.9159835974373 1020.9159835974373 0 0 1 261.22575170889786,-40.409725826746126 L 261.1990263917181,-41.40936864166633 A 1021.9159835974373 1021.9159835974373 0 0 0 24.018736134675446,-6.953439040707552 Z M 309.487460692744,-41.55905199354447 L 309.4669331681284,-40.559262705377705 A 1020.9159835974373 1020.9159835974373 0 0 1 546.6239765315883,-7.606670354657784 L 545.8654990696984,-4.704134921660405 L 553.5229721188971,-6.3206455157479295 L 547.6352798141079,-11.47671759865429 L 546.8768023522181,-8.57418216565691 A 1021.9159835974373 1021.9159835974373 0 0 0 309.487460692744,-41.55905199354447"/><text text-anchor="middle" pointer-events="none" font-size="8px" fill="#000000" x="285.3439091748816" y="-38.269474623139445" transform="rotate(180 285.3439091748816 -41.269474623139445)" font-family="sans-serif">ENDORSED</text></g><g class="relationship" transform="translate(303.7507408685326 180.37267485323986) rotate(192.03206136132906)"><path class="outline" fill="#A5ABB6" stroke="none" d="M 25 0.5 L 237.70273719818982 0.5 L 237.70273719818982 -0.5 L 25 -0.5 Z M 285.9722684481898 0.5 L 498.67500564637965 0.5 L 498.67500564637965 3.5 L 505.67500564637965 0 L 498.67500564637965 -3.5 L 498.67500564637965 -0.5 L 285.9722684481898 -0.5 Z"/><text text-anchor="middle" pointer-events="none" font-size="8px" fill="#000000" x="261.8375028231898" y="3" transform="rotate(180 261.8375028231898 0)" font-family="sans-serif">ENDORSED</text></g><g class="relationship" transform="translate(-215.26592137393914 69.74869041736311) rotate(274.45810959172394)"><path class="outline" fill="#A5ABB6" stroke="none" d="M 24.018736134675446,6.953439040707552 L 24.277555179777966,5.987513214418485 A 698.4634015278407 698.4634015278407 0 0 0 177.91402398832747,29.25962414962737 L 177.8751684638224,30.25886898860108 A 699.4634015278407 699.4634015278407 0 0 1 24.018736134675446,6.953439040707552 Z M 226.16917703991749,30.46827015637234 L 226.13898819631035,29.468725943382424 A 698.4634015278407 698.4634015278407 0 0 0 379.9714905565179,7.529789940520473 L 379.22019147182016,4.62538816298825 L 386.8736445515427,6.26082570581445 L 380.9732226694482,11.402325643896772 L 380.22192358475047,8.497923866364548 A 699.4634015278407 699.4634015278407 0 0 1 226.16917703991749,30.46827015637234"/><text text-anchor="middle" pointer-events="none" font-size="8px" fill="#000000" x="202.02253291217303" y="33.280506116101606" font-family="sans-serif">ENDORSED</text></g><g class="relationship" transform="translate(-215.26592137393914 69.74869041736311) rotate(258.2699553591737)"><path class="outline" fill="#A5ABB6" stroke="none" d="M 24.018736134675446,6.953439040707552 L 24.277555179777966,5.987513214418485 A 387.50724760868417 387.50724760868417 0 0 0 97.76313908969163,18.26304640518697 L 97.69395671426018,19.26065043431356 A 388.50724760868417 388.50724760868417 0 0 1 24.018736134675446,6.953439040707552 Z M 145.9933338579297,19.600482689588375 L 145.93819583151293,18.602003947680032 A 387.50724760868417 387.50724760868417 0 0 0 219.58923599593035,7.361717456759455 L 218.8536309799768,4.453301176289277 L 226.498141486353,6.130041799612881 L 220.5700426838684,11.239605830719693 L 219.83443766791484,8.331189550249514 A 388.50724760868417 388.50724760868417 0 0 1 145.9933338579297,19.600482689588375"/><text text-anchor="middle" pointer-events="none" font-size="8px" fill="#000000" x="121.84187692403194" y="22.68189875565031" transform="rotate(180 121.84187692403194 19.68189875565031)" font-family="sans-serif">ENDORSED</text></g><g class="relationship" transform="translate(-215.26592137393914 69.74869041736311) rotate(333.7815153840885)"><path class="outline" fill="#A5ABB6" stroke="none" d="M 24.018736134675446,6.953439040707552 L 24.277555179777966,5.987513214418485 A 1328.2587292121782 1328.2587292121782 0 0 0 340.6954494306431,50.96500023253884 L 340.67485046065997,51.96478805124616 A 1329.2587292121782 1329.2587292121782 0 0 1 24.018736134675446,6.953439040707552 Z M 388.9597466713973,52.082460268540444 L 388.94402096270835,51.0825839251429 A 1328.2587292121782 1328.2587292121782 0 0 0 705.577379277218,7.6478680507179835 L 704.815055279497,4.746340500874879 L 712.4746642264721,6.352699981009277 L 706.5938112741795,11.516571450508788 L 705.8314872764585,8.615043900665684 A 1329.2587292121782 1329.2587292121782 0 0 1 388.9597466713973,52.082460268540444"/><text text-anchor="middle" pointer-events="none" font-size="8px" fill="#000000" x="364.81798273600424" y="54.7428860466664" font-family="sans-serif">ENDORSED</text></g><g class="relationship" transform="translate(-215.26592137393914 69.74869041736311) rotate(394.30203926028594)"><path class="outline" fill="#A5ABB6" stroke="none" d="M 24.018736134675446,6.953439040707552 L 24.277555179777966,5.987513214418485 A 723.0294640859487 723.0294640859487 0 0 0 184.2570249706149,30.114056573461085 L 184.21946865094375,31.11335108603123 A 724.0294640859487 724.0294640859487 0 0 1 24.018736134675446,6.953439040707552 Z M 232.51297210006666,31.31657923321677 L 232.4838274001735,30.317004030208977 A 723.0294640859487 723.0294640859487 0 0 0 392.6606856574948,7.537738725397949 L 391.9086443756178,4.633529037659674 L 399.5625151425303,6.267010682308073 L 393.6634073666641,11.410018309048983 L 392.9113660847871,8.505808621310708 A 724.0294640859487 724.0294640859487 0 0 1 232.51297210006666,31.31657923321677"/><text text-anchor="middle" pointer-events="none" font-size="8px" fill="#000000" x="208.36662952391302" y="34.11773842052946" font-family="sans-serif">ENDORSED</text></g><g class="relationship" transform="translate(-215.26592137393914 69.74869041736311) rotate(304.858433383127)"><path class="outline" fill="#A5ABB6" stroke="none" d="M 24.018736134675446,-6.953439040707552 L 24.277555179777966,-5.987513214418485 A 896.325974560764 896.325974560764 0 0 1 229.0241923222375,-36.11507511545233 L 228.9938020440719,-37.114613224277036 A 897.325974560764 897.325974560764 0 0 0 24.018736134675446,-6.953439040707552 Z M 277.2841222654948,-37.282840178718516 L 277.26069673804403,-36.28311459403858 A 896.325974560764 896.325974560764 0 0 1 482.2122700720647,-7.582801091287571 L 481.45602126816294,-4.679684189301506 L 489.11225097734916,-6.302073365847827 L 483.2206018106004,-11.45362362726899 L 482.4643530066986,-8.550506725282926 A 897.325974560764 897.325974560764 0 0 0 277.2841222654948,-37.282840178718516"/><text text-anchor="middle" pointer-events="none" font-size="8px" fill="#000000" x="253.13957210273296" y="-34.02363834004359" font-family="sans-serif">ENDORSED</text></g><g class="relationship" transform="translate(78.11386108339377 -351.45222983217167) rotate(427.0099873704389)"><path class="outline" fill="#A5ABB6" stroke="none" d="M 24.018736134675446,-6.953439040707552 L 24.277555179777966,-5.987513214418485 A 1020.9159835974373 1020.9159835974373 0 0 1 261.22575170889786,-40.409725826746126 L 261.1990263917181,-41.40936864166633 A 1021.9159835974373 1021.9159835974373 0 0 0 24.018736134675446,-6.953439040707552 Z M 309.487460692744,-41.55905199354447 L 309.4669331681284,-40.559262705377705 A 1020.9159835974373 1020.9159835974373 0 0 1 546.6239765315883,-7.606670354657784 L 545.8654990696984,-4.704134921660405 L 553.5229721188971,-6.3206455157479295 L 547.6352798141079,-11.47671759865429 L 546.8768023522181,-8.57418216565691 A 1021.9159835974373 1021.9159835974373 0 0 0 309.487460692744,-41.55905199354447"/><text text-anchor="middle" pointer-events="none" font-size="8px" fill="#000000" x="285.3439091748816" y="-38.269474623139445" font-family="sans-serif">ENDORSED</text></g><g class="relationship" transform="translate(78.11386108339377 -351.45222983217167) rotate(512.9676575085589)"><path class="outline" fill="#A5ABB6" stroke="none" d="M 24.018736134675446,-6.953439040707552 L 24.277555179777966,-5.987513214418485 A 651.0378687997071 651.0378687997071 0 0 1 165.67155567465682,-27.606524309699694 L 165.6299190812534,-28.60565713074493 A 652.0378687997071 652.0378687997071 0 0 0 24.018736134675446,-6.953439040707552 Z M 213.92493414206155,-28.82809906161185 L 213.8925029284069,-27.82862509177528 A 651.0378687997071 651.0378687997071 0 0 1 355.47965011207583,-7.5129964016817645 L 354.7299190908807,-4.608189455281085 L 362.38248815720993,-6.2477585099598105 L 356.4792914736694,-11.386072330216004 L 355.72956045247423,-8.481265383815325 A 652.0378687997071 652.0378687997071 0 0 0 213.92493414206155,-28.82809906161185"/><text text-anchor="middle" pointer-events="none" font-size="8px" fill="#000000" x="189.77766933466089" y="-25.66417979843027" transform="rotate(180 189.77766933466089 -28.66417979843027)" font-family="sans-serif">ENDORSED</text></g><g class="relationship" transform="translate(78.11386108339377 -351.45222983217167) rotate(537.5101644743509)"><path class="outline" fill="#A5ABB6" stroke="none" d="M 24.018736134675446,-6.953439040707552 L 24.277555179777966,-5.987513214418485 A 408.7678494388763 408.7678494388763 0 0 1 103.22968316667826,-19.03350663858373 L 103.16401074036017,-20.031347874663652 A 409.7678494388763 409.7678494388763 0 0 0 24.018736134675446,-6.953439040707552 Z M 151.4634067505011,-20.357332041298946 L 151.41120903137886,-19.358695271437966 A 408.7678494388763 408.7678494388763 0 0 1 230.5322374888919,-7.379575357660491 L 229.7949648928208,-4.4715813550733845 L 237.44043559427365,-6.1439383005924535 L 231.51526761698668,-11.256900694443301 L 230.77799502091557,-8.348906691856193 A 409.7678494388763 409.7678494388763 0 0 0 151.4634067505011,-20.357332041298946"/><text text-anchor="middle" pointer-events="none" font-size="8px" fill="#000000" x="127.31227602539369" y="-17.406618711120018" transform="rotate(180 127.31227602539369 -20.406618711120018)" font-family="sans-serif">ENDORSED</text></g><g class="relationship" transform="translate(78.11386108339377 -351.45222983217167) rotate(484.858433383127)"><path class="outline" fill="#A5ABB6" stroke="none" d="M 24.018736134675446,-6.953439040707552 L 24.277555179777966,-5.987513214418485 A 896.325974560764 896.325974560764 0 0 1 229.0241923222375,-36.11507511545233 L 228.9938020440719,-37.114613224277036 A 897.325974560764 897.325974560764 0 0 0 24.018736134675446,-6.953439040707552 Z M 277.2841222654948,-37.282840178718516 L 277.26069673804403,-36.28311459403858 A 896.325974560764 896.325974560764 0 0 1 482.2122700720647,-7.582801091287571 L 481.45602126816294,-4.679684189301506 L 489.11225097734916,-6.302073365847827 L 483.2206018106004,-11.45362362726899 L 482.4643530066986,-8.550506725282926 A 897.325974560764 897.325974560764 0 0 0 277.2841222654948,-37.282840178718516"/><text text-anchor="middle" pointer-events="none" font-size="8px" fill="#000000" x="253.13957210273296" y="-34.02363834004359" transform="rotate(180 253.13957210273296 -37.02363834004359)" font-family="sans-serif">ENDORSED</text></g></g><g class="layer nodes"><g class="node" transform="translate(493.8610318898361,15.704290692270149)"><circle class="outline" cx="0" cy="0" r="25" fill="#68BDF6" stroke="#5CA8DB" stroke-width="2px"/><text text-anchor="middle" pointer-events="none" font-family="sans-serif" dy="1.5625" font-size="25" fill="#FFFFFF"/><text text-anchor="middle" pointer-events="none" y="5" font-size="10px" fill="#FFFFFF" font-family="sans-serif"> 561</text></g><g class="node" transform="translate(-260.7777866210795,-266.74167071480167)"><circle class="outline" cx="0" cy="0" r="25" fill="#68BDF6" stroke="#5CA8DB" stroke-width="2px"/><text text-anchor="middle" pointer-events="none" font-family="sans-serif" dy="1.5625" font-size="25" fill="#FFFFFF"/><text text-anchor="middle" pointer-events="none" y="5" font-size="10px" fill="#FFFFFF" font-family="sans-serif"> 2590</text></g><g class="node" transform="translate(445.598138402642,-255.70161194870286)"><circle class="outline" cx="0" cy="0" r="25" fill="#68BDF6" stroke="#5CA8DB" stroke-width="2px"/><text text-anchor="middle" pointer-events="none" font-family="sans-serif" dy="1.5625" font-size="25" fill="#FFFFFF"/><text text-anchor="middle" pointer-events="none" y="5" font-size="10px" fill="#FFFFFF" font-family="sans-serif"> 1087</text></g><g class="node" transform="translate(244.3868920360785,-351.9125990573317)"><circle class="outline" cx="0" cy="0" r="25" fill="#68BDF6" stroke="#5CA8DB" stroke-width="2px"/><text text-anchor="middle" pointer-events="none" font-family="sans-serif" dy="1.5625" font-size="25" fill="#FFFFFF"/><text text-anchor="middle" pointer-events="none" y="5" font-size="10px" fill="#FFFFFF" font-family="sans-serif"> 293</text></g><g class="node" transform="translate(134.79651355550484,308.56335047330464)"><circle class="outline" cx="0" cy="0" r="25" fill="#68BDF6" stroke="#5CA8DB" stroke-width="2px"/><text text-anchor="middle" pointer-events="none" font-family="sans-serif" dy="1.5625" font-size="25" fill="#FFFFFF"/><text text-anchor="middle" pointer-events="none" y="5" font-size="10px" fill="#FFFFFF" font-family="sans-serif"> 131</text></g><g class="node" transform="translate(-266.2405235693027,-175.74998979344892)"><circle class="outline" cx="0" cy="0" r="25" fill="#68BDF6" stroke="#5CA8DB" stroke-width="2px"/><text text-anchor="middle" pointer-events="none" font-family="sans-serif" dy="1.5625" font-size="25" fill="#FFFFFF"/><text text-anchor="middle" pointer-events="none" y="5" font-size="10px" fill="#FFFFFF" font-family="sans-serif"> 106</text></g><g class="node" transform="translate(-183.3128232461362,-340.08456036321246)"><circle class="outline" cx="0" cy="0" r="25" fill="#68BDF6" stroke="#5CA8DB" stroke-width="2px"/><text text-anchor="middle" pointer-events="none" font-family="sans-serif" dy="1.5625" font-size="25" fill="#FFFFFF"/><text text-anchor="middle" pointer-events="none" y="5" font-size="10px" fill="#FFFFFF" font-family="sans-serif"> 37</text></g><g class="node" transform="translate(303.7507408685326,180.37267485323986)"><circle class="outline" cx="0" cy="0" r="25" fill="#68BDF6" stroke="#5CA8DB" stroke-width="2px"/><text text-anchor="middle" pointer-events="none" font-family="sans-serif" dy="1.5625" font-size="25" fill="#FFFFFF"/><text text-anchor="middle" pointer-events="none" y="5" font-size="10px" fill="#FFFFFF" font-family="sans-serif"> 22</text></g><g class="node" transform="translate(-215.26592137393914,69.74869041736311)"><circle class="outline" cx="0" cy="0" r="25" fill="#68BDF6" stroke="#5CA8DB" stroke-width="2px"/><text text-anchor="middle" pointer-events="none" font-family="sans-serif" dy="1.5625" font-size="25" fill="#FFFFFF"/><text text-anchor="middle" pointer-events="none" y="5" font-size="10px" fill="#FFFFFF" font-family="sans-serif"> 4</text></g><g class="node" transform="translate(78.11386108339377,-351.45222983217167)"><circle class="outline" cx="0" cy="0" r="25" fill="#68BDF6" stroke="#5CA8DB" stroke-width="2px"/><text text-anchor="middle" pointer-events="none" font-family="sans-serif" dy="1.5625" font-size="25" fill="#FFFFFF"/><text text-anchor="middle" pointer-events="none" y="5" font-size="10px" fill="#FFFFFF" font-family="sans-serif"> 2</text></g></g></svg>